# xmcd
#
# Track frame offsets:
#	150
#	15215
#	29627
#	39320
#	53217
#	68360
#	77604
#	87577
#	99992
#	110379
#	120370
#	129020
#	139362
#	150375
#	161185
#	177395
#	188342
#	198242
#	207195
#	218067
#	229345
#	239140
#
# Disc length: 3349 seconds
# Revision: 2
# Processed by: cddbd v1.5.2PL0 Copyright (c) Steve Scherf et al.
# Submitted via: dBpowerAMP V12.0
#
DISCID=1c0d1316
DTITLE=Sons Of The Pioneers - Gunfighter Ballads And Trail Songs
DYEAR=1964
DGENRE=Country
TTITLE0=Ringo
TTITLE1=The Restless Gun
TTITLE2=(Down The) Trail To San Antone
TTITLE3=Gringo's Guitar
TTITLE4=Outlaws
TTITLE5=Sugarfoot
TTITLE6=Maverick
TTITLE7=Autumn On The Trail
TTITLE8=(I've Come To) California
TTITLE9=My Calico Gal
TTITLE10=Song Of The Trail
TTITLE11=The Timber Trail
TTITLE12=Song Of The Bandit
TTITLE13=The Lillies Grow High
TTITLE14=High Noon
TTITLE15=Destiny
TTITLE16=Cool Water
TTITLE17=Saddle Up!
TTITLE18=Ghost Riders In The Sky
TTITLE19=Silent Trails
TTITLE20=Trail Herdin' Cowboy
TTITLE21=Trail Dust
EXTD=
EXTT0=
EXTT1=
EXTT2=
EXTT3=
EXTT4=
EXTT5=
EXTT6=
EXTT7=
EXTT8=
EXTT9=
EXTT10=
EXTT11=
EXTT12=
EXTT13=
EXTT14=
EXTT15=
EXTT16=
EXTT17=
EXTT18=
EXTT19=
EXTT20=
EXTT21=
PLAYORDER=
